#N canvas 351 174 1070 1054 12;
#X obj 201 225 monome-device;
#X obj 201 263 route /monome/enc/delta;
#X obj 201 298 route 0 1 2 3, f 95;
#X obj 201 144 makefilename /monome/ring%s;
#X obj 201 118 prepend symbol;
#X obj 201 89 list split 1;
#X obj 201 172 list append;
#X obj 201 198 list trim;
#X obj 201 63 r arc;
#X msg 21 33 /all 0 0;
#X msg 46 62 /all 1 0;
#X msg 101 33 /all 2 0;
#X msg 126 62 /all 3 0;
#X obj 366 385 enc_scaling;
#X obj 532 384 enc_scaling;
#X obj 697 383 enc_scaling;
#X msg 569 265 1;
#X obj 569 124 loadbang;
#N canvas 1377 100 504 709 bpm_scaling 0;
#X obj 130 44 inlet;
#X obj 130 91 moses 0;
#X obj 104 190 gate;
#X obj 130 126 t f b;
#X obj 97 258 t b f;
#X obj 129 286 * 0.0625;
#X msg 104 160 0, f 1;
#X msg 123 160 1, f 1;
#X obj 150 190 gate;
#X obj 176 126 t f b;
#X msg 150 160 0, f 1;
#X msg 169 160 1, f 1;
#X obj 29 368 sel 1;
#X obj 105 367 sel 1;
#X obj 97 531 change;
#X obj 97 438 i;
#X obj 97 573 outlet;
#X obj 29 341 <= 30.0625;
#X obj 97 316 accum 120;
#X obj 118 501 t b;
#X obj 118 469 sel 30 250;
#X obj 97 406 clip 30 250;
#X obj 105 340 >= 249.938;
#X obj 227 127 loadbang;
#X connect 0 0 1 0;
#X connect 1 0 3 0;
#X connect 1 1 9 0;
#X connect 2 0 4 0;
#X connect 3 0 2 1;
#X connect 3 1 11 0;
#X connect 4 0 18 0;
#X connect 4 1 5 0;
#X connect 5 0 18 1;
#X connect 6 0 2 0;
#X connect 7 0 2 0;
#X connect 8 0 4 0;
#X connect 9 0 8 1;
#X connect 9 1 7 0;
#X connect 10 0 8 0;
#X connect 11 0 8 0;
#X connect 12 0 6 0;
#X connect 13 0 10 0;
#X connect 14 0 16 0;
#X connect 15 0 14 0;
#X connect 15 0 20 0;
#X connect 17 0 12 0;
#X connect 18 0 17 0;
#X connect 18 0 21 0;
#X connect 18 0 22 0;
#X connect 19 0 14 0;
#X connect 20 0 19 0;
#X connect 20 1 19 0;
#X connect 21 0 15 0;
#X connect 22 0 13 0;
#X connect 23 0 11 0;
#X connect 23 0 7 0;
#X restore 201 385 pd bpm_scaling;
#X obj 322 438 tgl 19 0 empty empty empty 0 -10 0 12 #fcfcfc #000000 #000000 0 1;
#X msg 201 436 tempo \$1 permin;
#X obj 209 491 bng 19 250 50 0 empty empty empty 0 -10 0 12 #fcfcfc #000000 #000000;
#X obj 201 466 metro 0.25 120 permin;
#X obj 201 613 counter;
#N canvas 150 416 938 651 step_math 0;
#X obj 151 71 inlet;
#X obj 435 72 inlet;
#X obj 717 69 inlet;
#X obj 153 534 outlet;
#X obj 417 565 outlet;
#X obj 699 563 outlet;
#X obj 151 111 clip 0 63;
#X obj 151 140 / 63;
#X obj 151 168 * 16.9;
#X obj 151 197 i;
#X obj 435 114 clip 0 63;
#X obj 435 143 / 63;
#X obj 435 171 * 16.9;
#X obj 717 111 clip 0 63;
#X obj 717 140 / 63;
#X obj 717 168 * 15;
#X obj 153 469 pak 0 0 0, f 81;
#X obj 266 325 <;
#X obj 266 353 sel 1;
#X obj 435 242 clip 0 16;
#X obj 435 281 round 1;
#X obj 417 392 del 10;
#X obj 417 422 i;
#X obj 417 501 / 16.9;
#X obj 417 529 * 63;
#X obj 582 333 <;
#X obj 582 361 sel 1;
#X obj 717 278 clip 0 16;
#X obj 717 305 round 1;
#X obj 699 391 del 10;
#X obj 699 421 i;
#X obj 699 528 * 63;
#X obj 582 228 - 1;
#X obj 777 250 clip 0 15;
#X obj 699 500 / 15;
#X connect 0 0 6 0;
#X connect 1 0 10 0;
#X connect 2 0 13 0;
#X connect 6 0 7 0;
#X connect 7 0 8 0;
#X connect 8 0 9 0;
#X connect 9 0 16 0;
#X connect 9 0 17 0;
#X connect 9 0 19 2;
#X connect 9 0 32 0;
#X connect 10 0 11 0;
#X connect 11 0 12 0;
#X connect 12 0 19 0;
#X connect 13 0 14 0;
#X connect 14 0 15 0;
#X connect 15 0 27 0;
#X connect 16 0 3 0;
#X connect 17 0 18 0;
#X connect 18 0 12 0;
#X connect 18 0 21 0;
#X connect 19 0 20 0;
#X connect 20 0 17 1;
#X connect 20 0 16 1;
#X connect 20 0 22 1;
#X connect 21 0 22 0;
#X connect 22 0 23 0;
#X connect 23 0 24 0;
#X connect 24 0 4 0;
#X connect 25 0 26 0;
#X connect 26 0 29 0;
#X connect 26 0 15 0;
#X connect 27 0 28 0;
#X connect 28 0 25 1;
#X connect 28 0 30 1;
#X connect 28 0 16 2;
#X connect 29 0 30 0;
#X connect 30 0 34 0;
#X connect 31 0 5 0;
#X connect 32 0 33 0;
#X connect 32 0 25 0;
#X connect 33 0 27 2;
#X connect 34 0 31 0;
#X restore 366 535 pd step_math;
#X f 48;
#X obj 247 583 - 1;
#X msg 247 558 \$1;
#X obj 366 612 arclid;
#X obj 201 648 * 4;
#X obj 201 679 t b f, f 8;
#X obj 201 717 zl reg;
#X obj 201 747 zl rot 4;
#X obj 201 936 s arc;
#X obj 201 861 prepend /map 0;
#X obj 60 456 uzi 16;
#X obj 60 509 zl group 64;
#X obj 60 558 zl slice 64;
#X obj 60 533 prepend 4 4 4 4 4;
#X msg 60 484 0 0 0 1;
#X msg 62 592 0 0 0 0;
#X obj 62 616 zl group 64;
#X obj 62 639 prepend 2 2 2 2;
#X obj 62 663 zl slice 64;
#X obj 408 679 zl slice 64, f 18;
#X obj 365 716 zl reg;
#X obj 365 746 zl rot 4;
#X obj 365 860 prepend /map 1;
#X obj 531 860 prepend /map 2;
#X obj 696 861 prepend /map 3;
#X obj 531 747 zl slice 64, f 24;
#N canvas 869 413 651 557 sum_indexes 0;
#X obj 186 122 inlet;
#X obj 393 129 inlet;
#X obj 186 179 zl lace;
#X obj 186 214 zl iter 2;
#X obj 186 245 expr $f1 + $f2;
#X obj 186 275 zl group 64;
#X obj 186 354 outlet;
#X connect 0 0 2 0;
#X connect 1 0 2 1;
#X connect 2 0 3 0;
#X connect 3 0 4 0;
#X connect 4 0 5 0;
#X connect 5 0 6 0;
#X restore 365 801 pd sum_indexes;
#X msg 771 355 0;
#X msg 440 324 16;
#X msg 606 325 4;
#X obj 440 351 * 4;
#X obj 606 354 * 4;
#X floatatom 210 411 5 0 0 0 - - - 0;
#X obj 807 735 notemaker;
#X obj 807 869 noteout 1;
#X obj 807 826 pack 0 0;
#X obj 888 720 expr 15000/$f1;
#X obj 888 751 * 0.7;
#X msg 888 692 120;
#X obj 807 781 makenote 100;
#X connect 0 0 1 0;
#X connect 1 0 2 0;
#X connect 2 0 18 0;
#X connect 2 1 13 0;
#X connect 2 2 14 0;
#X connect 2 3 15 0;
#X connect 3 0 6 0;
#X connect 4 0 3 0;
#X connect 5 0 4 0;
#X connect 5 1 6 1;
#X connect 6 0 7 0;
#X connect 7 0 0 0;
#X connect 8 0 5 0;
#X connect 9 0 5 0;
#X connect 10 0 5 0;
#X connect 11 0 5 0;
#X connect 12 0 5 0;
#X connect 13 0 24 0;
#X connect 14 0 24 1;
#X connect 15 0 24 2;
#X connect 16 0 13 1;
#X connect 16 0 14 1;
#X connect 16 0 15 1;
#X connect 17 0 16 0;
#X connect 17 0 34 0;
#X connect 17 0 52 0;
#X connect 17 0 53 0;
#X connect 17 0 51 0;
#X connect 17 0 19 0;
#X connect 17 0 62 0;
#X connect 18 0 20 0;
#X connect 18 0 56 0;
#X connect 18 0 60 0;
#X connect 19 0 22 0;
#X connect 20 0 22 0;
#X connect 22 0 21 0;
#X connect 22 0 23 0;
#X connect 23 0 28 0;
#X connect 23 0 57 1;
#X connect 24 0 26 0;
#X connect 24 0 27 0;
#X connect 24 0 57 0;
#X connect 24 1 14 2;
#X connect 24 2 15 2;
#X connect 25 0 23 4;
#X connect 26 0 25 0;
#X connect 27 0 43 0;
#X connect 28 0 29 0;
#X connect 29 0 30 0;
#X connect 29 0 44 0;
#X connect 29 1 31 1;
#X connect 29 1 45 1;
#X connect 30 0 31 0;
#X connect 31 0 33 0;
#X connect 33 0 32 0;
#X connect 34 0 38 0;
#X connect 34 0 39 0;
#X connect 35 0 37 0;
#X connect 36 0 30 1;
#X connect 37 0 36 0;
#X connect 38 0 35 0;
#X connect 39 0 40 0;
#X connect 40 0 41 0;
#X connect 41 0 42 0;
#X connect 42 0 44 1;
#X connect 43 0 50 1;
#X connect 43 1 49 0;
#X connect 44 0 45 0;
#X connect 45 0 50 0;
#X connect 46 0 32 0;
#X connect 47 0 32 0;
#X connect 48 0 32 0;
#X connect 49 0 47 0;
#X connect 49 1 48 0;
#X connect 50 0 46 0;
#X connect 51 0 15 2;
#X connect 52 0 54 0;
#X connect 53 0 55 0;
#X connect 54 0 13 2;
#X connect 55 0 14 2;
#X connect 57 0 63 0;
#X connect 59 0 58 0;
#X connect 60 0 61 0;
#X connect 61 0 63 2;
#X connect 62 0 60 0;
#X connect 63 0 59 0;
#X connect 63 1 59 1;
