#N canvas 21 278 1359 973 12;
#X obj 170 107 inlet;
#X obj 170 163 unpack 0 0 0;
#X obj 170 224 euclid, f 12;
#X obj 170 307 + 1;
#X obj 170 334 zl group;
#X obj 170 280 zl iter 1;
#X obj 837 330 zl reg;
#X obj 170 392 zl join;
#X obj 821 95 loadbang;
#X obj 170 527 zl slice 16;
#X obj 170 582 list_expand;
#X msg 817 555 4;
#X obj 170 194 t f f;
#X obj 783 155 uzi 64;
#X obj 783 219 zl group 64;
#X msg 875 194 1;
#X msg 783 187 0;
#X obj 875 219 zl group 64;
#X obj 875 244 prepend 2;
#X obj 875 269 zl slice 64;
#X obj 170 775 t l b;
#X obj 170 858 zl join;
#X obj 170 894 outlet;
#X obj 744 329 zl reg;
#X obj 744 358 zl slice 32;
#X obj 837 359 zl slice 32;
#X obj 744 301 t b b f, f 27;
#X obj 744 384 zl join;
#X obj 513 507 zl group;
#X obj 513 453 zl iter 1;
#X obj 566 481 zl len;
#X obj 513 425 t l l, f 8;
#X obj 513 531 zl slice 64;
#X obj 513 556 zl sort -1;
#X obj 513 580 list_expand;
#X obj 513 606 zl slice 64;
#X obj 513 633 t l b;
#X obj 743 675 zl reg;
#X obj 513 730 zl join;
#X obj 513 803 zl reg;
#X obj 513 480 * 2;
#X obj 744 506 zl group;
#X obj 744 452 zl iter 1;
#X obj 797 480 zl len;
#X obj 744 424 t l l, f 8;
#X obj 744 530 zl slice 64;
#X obj 744 479 * 2;
#X obj 744 556 zl rev;
#X obj 743 580 list_expand;
#X obj 743 605 zl slice 64;
#X msg 247 128 16 4 \$1;
#X connect 0 0 1 0;
#X connect 1 0 12 0;
#X connect 1 1 2 1;
#X connect 1 2 2 2;
#X connect 1 2 26 0;
#X connect 2 0 5 0;
#X connect 3 0 4 0;
#X connect 4 0 7 0;
#X connect 5 0 3 0;
#X connect 6 0 25 0;
#X connect 7 0 9 0;
#X connect 7 0 31 0;
#X connect 8 0 11 0;
#X connect 8 0 13 0;
#X connect 9 0 10 0;
#X connect 10 0 20 0;
#X connect 11 0 10 1;
#X connect 11 0 34 1;
#X connect 11 0 48 1;
#X connect 12 0 2 0;
#X connect 12 1 4 1;
#X connect 13 0 16 0;
#X connect 13 0 15 0;
#X connect 14 0 7 1;
#X connect 14 0 23 1;
#X connect 15 0 17 0;
#X connect 16 0 14 0;
#X connect 17 0 18 0;
#X connect 18 0 19 0;
#X connect 19 0 6 1;
#X connect 20 0 21 0;
#X connect 20 1 39 0;
#X connect 21 0 22 0;
#X connect 23 0 24 0;
#X connect 24 1 27 0;
#X connect 25 0 27 1;
#X connect 26 0 23 0;
#X connect 26 1 6 0;
#X connect 26 2 25 1;
#X connect 26 2 24 1;
#X connect 27 0 44 0;
#X connect 28 0 32 0;
#X connect 29 0 40 0;
#X connect 30 0 28 1;
#X connect 31 0 29 0;
#X connect 31 1 30 0;
#X connect 32 0 33 0;
#X connect 33 0 34 0;
#X connect 34 0 35 0;
#X connect 35 0 36 0;
#X connect 36 0 38 0;
#X connect 36 1 37 0;
#X connect 37 0 38 1;
#X connect 38 0 39 0;
#X connect 39 0 21 1;
#X connect 40 0 28 0;
#X connect 41 0 45 0;
#X connect 42 0 46 0;
#X connect 43 0 41 1;
#X connect 44 0 42 0;
#X connect 44 1 43 0;
#X connect 45 0 47 0;
#X connect 46 0 41 0;
#X connect 47 0 48 0;
#X connect 48 0 49 0;
#X connect 49 0 37 0;
#X connect 50 0 1 0;
