#N canvas 1284 394 861 738 12;
#X obj 158 51 inlet;
#X obj 320 56 inlet;
#X obj 537 54 inlet;
#X obj 183 95 moses 0;
#X obj 320 171 sel 0 1;
#X obj 125 407 wrap 0 64;
#X obj 125 323 accum 0;
#X obj 125 230 switch 2 1;
#X obj 157 194 gate;
#X obj 183 130 t f b;
#X obj 125 265 t b f;
#X obj 157 293 * 0.0625;
#X msg 157 164 0, f 1;
#X msg 176 164 1, f 1;
#X obj 203 194 gate;
#X obj 229 130 t f b;
#X msg 203 164 0, f 1;
#X msg 222 164 1, f 1;
#X obj 57 348 <= 0.0625;
#X obj 57 375 sel 1;
#X obj 133 374 sel 1;
#X obj 133 347 >= 63.9375;
#X msg 320 201 1, f 1;
#X msg 343 201 2, f 1;
#X msg 321 228 0, f 1;
#X obj 214 487 change;
#X obj 214 436 i;
#X obj 225 460 sel 0 63;
#X obj 126 591 outlet;
#X obj 214 406 clip 0 63;
#X obj 126 525 switch 2 1;
#X obj 125 486 change;
#X obj 537 81 t f b;
#X obj 126 559 i;
#X obj 125 443 i;
#X connect 0 0 3 0;
#X connect 0 0 7 1;
#X connect 1 0 4 0;
#X connect 2 0 32 0;
#X connect 3 0 9 0;
#X connect 3 1 15 0;
#X connect 4 0 22 0;
#X connect 4 0 24 0;
#X connect 4 1 23 0;
#X connect 4 1 24 0;
#X connect 5 0 34 0;
#X connect 6 0 5 0;
#X connect 6 0 18 0;
#X connect 6 0 21 0;
#X connect 6 0 29 0;
#X connect 7 0 10 0;
#X connect 8 0 7 2;
#X connect 9 0 8 1;
#X connect 9 1 17 0;
#X connect 10 0 6 0;
#X connect 10 1 11 0;
#X connect 11 0 6 1;
#X connect 12 0 8 0;
#X connect 13 0 8 0;
#X connect 14 0 7 2;
#X connect 15 0 14 1;
#X connect 15 1 13 0;
#X connect 16 0 14 0;
#X connect 17 0 14 0;
#X connect 18 0 19 0;
#X connect 19 0 12 0;
#X connect 20 0 16 0;
#X connect 21 0 20 0;
#X connect 22 0 7 0;
#X connect 22 0 30 0;
#X connect 23 0 7 0;
#X connect 23 0 30 0;
#X connect 24 0 6 0;
#X connect 25 0 30 2;
#X connect 26 0 27 0;
#X connect 26 0 25 0;
#X connect 27 0 25 0;
#X connect 27 1 25 0;
#X connect 29 0 26 0;
#X connect 30 0 33 0;
#X connect 31 0 30 1;
#X connect 32 0 6 0;
#X connect 32 1 17 0;
#X connect 32 1 13 0;
#X connect 33 0 28 0;
#X connect 34 0 31 0;
