#N canvas 1227 339 953 663 12;
#X obj 247 226 uzi 1 0;
#X obj 247 67 inlet;
#X obj 354 66 inlet;
#X obj 504 66 inlet;
#X obj 247 147 i 8;
#X obj 322 227 / 1;
#X obj 398 227 i;
#X obj 398 283 != 0;
#X obj 398 308 * -1;
#X obj 293 252 / 1;
#X obj 325 346 >;
#X msg 325 374 append \$1;
#X obj 270 429 list store;
#X obj 293 282 i;
#X obj 247 178 t f f b b, f 33;
#X obj 293 309 t f f;
#X obj 270 461 list split 0;
#X obj 504 377 t b f;
#X obj 504 144 - 0;
#X obj 504 106 t b f;
#X obj 354 112 t b f;
#X obj 270 489 list prepend;
#X obj 271 528 outlet;
#X connect 0 1 12 0;
#X connect 0 2 9 0;
#X connect 1 0 4 0;
#X connect 1 0 18 0;
#X connect 2 0 20 0;
#X connect 3 0 19 0;
#X connect 4 0 14 0;
#X connect 5 0 9 1;
#X connect 6 0 7 0;
#X connect 7 0 8 0;
#X connect 8 0 10 1;
#X connect 9 0 13 0;
#X connect 10 0 11 0;
#X connect 11 0 12 0;
#X connect 12 0 16 0;
#X connect 13 0 15 0;
#X connect 14 0 0 0;
#X connect 14 1 5 0;
#X connect 14 2 6 0;
#X connect 14 3 12 1;
#X connect 15 0 10 1;
#X connect 15 1 10 0;
#X connect 16 0 21 0;
#X connect 16 1 21 1;
#X connect 17 0 12 0;
#X connect 17 1 16 1;
#X connect 18 0 17 0;
#X connect 19 0 18 0;
#X connect 19 1 18 1;
#X connect 20 0 4 0;
#X connect 20 1 5 1;
#X connect 20 1 6 1;
#X connect 21 0 22 0;
