#N canvas 662 327 801 536 12;
#X obj 145 62 inlet;
#X obj 307 59 inlet;
#X obj 270 91 t f b f, f 12;
#X obj 310 152 list length;
#X obj 177 294 uzi 3;
#X obj 310 257 *, f 6;
#X obj 177 324 i;
#X obj 145 445 outlet;
#X obj 145 388 zl group, f 17;
#X obj 145 352 zl lookup;
#X obj 145 186 counter 0 4 @carryflag 1;
#X obj 145 237 sel 0;
#X obj 177 263 t b;
#X msg 394 294 zlclear;
#X obj 145 123 t b l l b, f 36;
#X connect 0 0 14 0;
#X connect 1 0 2 0;
#X connect 2 0 4 1;
#X connect 2 1 5 0;
#X connect 2 2 5 1;
#X connect 3 0 10 4;
#X connect 3 0 11 1;
#X connect 3 0 5 0;
#X connect 4 0 6 0;
#X connect 4 1 10 0;
#X connect 5 0 8 1;
#X connect 6 0 9 0;
#X connect 8 0 7 0;
#X connect 9 0 8 0;
#X connect 10 0 6 1;
#X connect 10 0 11 0;
#X connect 11 1 12 0;
#X connect 12 0 4 0;
#X connect 13 0 8 0;
#X connect 14 0 10 0;
#X connect 14 1 9 1;
#X connect 14 2 3 0;
#X connect 14 3 13 0;
