#N canvas 781 547 727 683 12;
#X obj 127 69 inlet;
#X obj 127 99 unpack 0 0 0;
#X obj 127 136 euclid;
#X obj 281 66 loadbang;
#X obj 127 203 zl filter 0;
#X obj 81 237 zl sect;
#X obj 425 53 inlet;
#X obj 425 81 + 1;
#X obj 425 108 t f f;
#X obj 118 262 sel;
#X obj 81 268 t b;
#X obj 81 312 counter 1 1;
#X msg 118 286 1;
#X obj 242 204 t b f;
#X obj 242 233 zl reg;
#X obj 242 264 zl slice 4;
#X obj 242 290 zl sort;
#X obj 242 318 t b l;
#X obj 242 367 i 48;
#X floatatom 354 318 5 0 0 0 - - - 0;
#X obj 242 399 t b f;
#X obj 242 431 zl reg;
#N canvas 847 634 594 540 sum_const 0;
#X obj 127 71 inlet;
#X obj 127 321 outlet;
#X obj 127 110 t l l;
#X obj 127 157 zl iter 1;
#X obj 127 196 +;
#X obj 336 70 inlet;
#X obj 127 238 zl group 16;
#X obj 201 156 zl len;
#X connect 0 0 2 0;
#X connect 2 0 3 0;
#X connect 2 1 7 0;
#X connect 3 0 4 0;
#X connect 4 0 6 0;
#X connect 5 0 4 1;
#X connect 6 0 1 0;
#X connect 7 0 6 1;
#X restore 242 461 pd sum_const;
#X obj 203 501 zl reg;
#X obj 196 461 t b f;
#X obj 203 531 zl nth;
#X obj 203 567 outlet;
#X msg 229 138 list 1 2 3 4 5 6 7 8 9 10 11 12 13 14 15 16;
#X msg 281 167 list 0 4 7 11 12 16 19 23 -12 -8 -5 -1 24 28 31 35;
#N canvas 419 182 651 557 mult_indexes 0;
#X obj 186 122 inlet;
#X obj 393 129 inlet;
#X obj 186 179 zl lace;
#X obj 186 214 zl iter 2;
#X obj 186 354 outlet;
#X obj 186 154 t l l;
#X obj 260 213 zl len;
#X obj 186 275 zl group 16;
#X obj 186 245 expr $f1 * $f2;
#X connect 0 0 5 0;
#X connect 1 0 2 1;
#X connect 2 0 3 0;
#X connect 3 0 8 0;
#X connect 5 0 2 0;
#X connect 5 1 6 0;
#X connect 6 0 7 1;
#X connect 7 0 4 0;
#X connect 8 0 7 0;
#X restore 127 172 pd mult_indexes;
#X connect 0 0 1 0;
#X connect 1 0 2 0;
#X connect 1 0 9 1;
#X connect 1 1 2 1;
#X connect 1 1 11 4;
#X connect 1 1 13 0;
#X connect 1 2 2 2;
#X connect 2 0 29 0;
#X connect 3 0 27 0;
#X connect 3 0 28 0;
#X connect 4 0 5 1;
#X connect 5 0 10 0;
#X connect 6 0 7 0;
#X connect 7 0 8 0;
#X connect 8 0 9 0;
#X connect 8 1 5 0;
#X connect 9 0 12 0;
#X connect 10 0 11 0;
#X connect 11 0 24 0;
#X connect 12 0 11 2;
#X connect 13 0 14 0;
#X connect 13 1 15 1;
#X connect 14 0 15 0;
#X connect 15 0 16 0;
#X connect 16 0 17 0;
#X connect 17 0 18 0;
#X connect 17 1 21 1;
#X connect 18 0 20 0;
#X connect 19 0 18 1;
#X connect 20 0 21 0;
#X connect 20 1 22 1;
#X connect 21 0 22 0;
#X connect 22 0 23 1;
#X connect 23 0 25 0;
#X connect 24 0 23 0;
#X connect 24 1 25 1;
#X connect 25 0 26 0;
#X connect 27 0 29 1;
#X connect 28 0 14 1;
#X connect 29 0 4 0;
